<svg width="1024" height="1024" viewBox="0 0 1024 1024" fill="none" xmlns="http://www.w3.org/2000/svg">
<g clip-path="url(#clip0_1_7)">
<path d="M601.807 29.4072L518.291 55.9912V116.687H537.817V158.092H585.339V116.687H627.214V291.952H658.738V219.493H689.321V250.782H720.846V219.493H758.251V250.782H788.599V243.019L798.009 250.782V353.445C805.222 354.728 812.006 356.22 819.888 357.727V237.607L813.771 236.196C806.54 234.606 801.774 232.609 801.773 229.845V210.789C801.951 204.375 806.89 203.025 811.654 203.025H817.535C817.3 191.89 823.409 166.445 845.06 147.976C871.082 125.778 890.907 118.889 925.354 123.247C959.8 127.606 979.765 149.82 993.271 172.207C1006.78 194.594 1004.93 218.433 1004.09 227.492C1003.86 227.728 1015.85 232.903 1015.15 243.019C1014.44 253.134 1011.86 256.899 1005.74 259.486C1000.85 261.557 995.388 260.349 993.271 259.486L967.538 366.065C1022.52 364.442 1000.33 355.969 1110.73 356.593V449.667L1024 450.217V978C1024 1003.41 1003.41 1024 978 1024H46C20.5949 1024 0 1003.41 0 978V456.715L-139.647 457.602V378.223C-18.9689 380.065 15.2997 363.798 66.5381 355.036L57.8975 335.238C57.8777 335.213 55.1645 331.733 58.9268 318.823C62.7028 305.867 70.1807 304.534 70.1807 304.534L93.8916 295.716L68.9541 219.493L46.1348 222.316C46.1348 222.316 41.0089 222.316 36.1963 219.493C31.4002 216.68 30.8465 212.932 30.8428 212.906L19.0811 170.56C19.0616 170.517 17.3933 166.856 17.9043 160.444C18.4185 153.995 24.4229 151.79 24.4229 151.79L107.302 127.979C107.364 127.96 113.884 125.889 118.379 128.468C122.876 131.048 125.628 135.935 125.651 135.978L138.12 176.677C138.12 176.677 140.045 184.215 138.74 188.884C137.443 193.527 134.389 195.476 134.355 195.497L111.536 209.377L133.18 284.188L148.706 280.188C148.764 280.175 157.947 278.004 167.099 284.188C176.254 290.375 178.103 298.495 178.113 298.539L192.972 350.344C202.193 350.637 210.549 351.015 218.202 351.461L202.109 305.596V220.904H234.104V250.782H266.334V219.493H303.269V250.782H334.087V220.904H366.082V291.952H394.782V116.687H435.011V158.092H483.003V116.687H504.646V4.46973H515.938L601.807 29.4072ZM920.862 140.44C888.985 137.485 868.277 148.758 854.961 162.828C841.649 176.894 835.728 193.749 833.406 201.957L833.371 202.085H833.503C833.504 202.085 833.512 202.085 833.528 202.087C833.545 202.088 833.569 202.091 833.599 202.094C833.658 202.1 833.743 202.109 833.852 202.122C834.069 202.147 834.382 202.185 834.786 202.234C835.594 202.333 836.767 202.479 838.266 202.667C841.263 203.043 845.567 203.588 850.87 204.262C861.477 205.609 876.087 207.475 892.268 209.545C924.629 213.686 963.274 218.646 988.746 221.927L988.866 221.942L988.859 221.822V221.821L988.858 221.818C988.858 221.816 988.859 221.813 988.858 221.809C988.858 221.799 988.857 221.785 988.855 221.767C988.853 221.73 988.85 221.676 988.845 221.604C988.835 221.461 988.819 221.249 988.796 220.972C988.749 220.417 988.673 219.603 988.553 218.565C988.313 216.491 987.9 213.52 987.204 209.938C985.813 202.773 983.293 193.157 978.781 183.356C969.757 163.753 952.755 143.397 920.862 140.44ZM104.485 158.092C104.315 157.7 104.131 157.726 103.72 157.811C103.306 157.896 47.6467 173.617 47.0693 173.764C46.5097 173.906 46.6039 174.379 46.7051 174.763C46.7588 174.966 52.7718 196.579 53.1348 197.528C53.4972 198.475 53.8453 198.923 54.6592 198.874C55.4788 198.825 84.7671 197.891 85.4463 197.868C86.1196 197.845 87.1766 197.538 87.666 197.224C88.1712 196.899 112.857 181.471 113.29 181.224C113.715 180.981 113.837 180.717 113.716 180.373C113.589 180.016 104.658 158.491 104.485 158.092Z" fill="#800020"/>
<path d="M466.592 916.604C443.467 916.604 420.341 912.268 397.216 903.596C374.452 894.924 354.037 882.277 335.97 865.656L381.498 810.914C394.145 821.754 408.237 830.606 423.774 837.472C439.311 844.337 454.307 847.77 468.76 847.77C485.381 847.77 497.667 844.698 505.616 838.556C513.927 832.413 518.082 824.102 518.082 813.624C518.082 802.422 513.385 794.292 503.99 789.234C494.957 783.814 482.671 777.852 467.134 771.348L421.064 751.836C409.14 746.777 397.758 740.092 386.918 731.782C376.078 723.11 367.225 712.45 360.36 699.804C353.495 687.157 350.062 672.342 350.062 655.36C350.062 635.848 355.301 618.142 365.78 602.244C376.62 586.345 391.435 573.698 410.224 564.304C429.375 554.909 451.235 550.212 475.806 550.212C496.041 550.212 516.275 554.186 536.51 562.136C556.745 570.085 574.45 581.648 589.626 596.824L548.976 647.23C537.413 638.196 525.851 631.331 514.288 626.634C502.725 621.575 489.898 619.046 475.806 619.046C462.075 619.046 451.055 621.936 442.744 627.718C434.795 633.138 430.82 640.906 430.82 651.024C430.82 661.864 435.879 669.994 445.996 675.414C456.475 680.834 469.302 686.615 484.478 692.758L530.006 711.186C551.325 719.858 568.307 731.782 580.954 746.958C593.601 762.134 599.924 782.188 599.924 807.12C599.924 826.632 594.685 844.698 584.206 861.32C573.727 877.941 558.551 891.31 538.678 901.428C518.805 911.545 494.776 916.604 466.592 916.604ZM659.904 910.1V556.716H780.77C805.341 556.716 827.382 559.426 846.894 564.846C866.406 569.904 881.943 578.757 893.506 591.404C905.069 604.05 910.85 621.756 910.85 644.52C910.85 660.057 906.695 675.414 898.384 690.59C890.435 705.404 879.233 715.522 864.78 720.942V723.11C882.847 727.807 897.842 737.021 909.766 750.752C922.051 764.121 928.194 782.549 928.194 806.036C928.194 830.245 922.051 849.938 909.766 865.114C897.481 880.29 881.04 891.672 860.444 899.26C839.848 906.486 816.723 910.1 791.068 910.1H659.904ZM739.578 698.178H776.976C796.488 698.178 810.58 694.384 819.252 686.796C828.285 679.208 832.802 669.09 832.802 656.444C832.802 642.713 828.285 632.957 819.252 627.176C810.219 621.394 796.307 618.504 777.518 618.504H739.578V698.178ZM739.578 848.312H784.564C828.285 848.312 850.146 832.413 850.146 800.616C850.146 785.078 844.726 774.058 833.886 767.554C823.046 760.688 806.605 757.256 784.564 757.256H739.578V848.312Z" fill="white"/>
</g>
<defs>
<clipPath id="clip0_1_7">
<rect width="1024" height="1024" fill="white"/>
</clipPath>
</defs>
</svg>
